<svg xmlns="http://www.w3.org/2000/svg" viewBox="0 0 255.77 134.78"><defs><style>.cls-1{fill:#231f20;}</style></defs><title>FullLogo_Black</title><g id="Layer_2" data-name="Layer 2"><g id="Layer_1-2" data-name="Layer 1"><path class="cls-1" d="M52.11,3.93H49.46V3.3h6v.63H52.81v7.46h-.7Z"/><path class="cls-1" d="M64.41,7.55H59.28v3.84h-.69V3.3h.69V6.92h5.13V3.3h.71v8.09h-.71Z"/><path class="cls-1" d="M68.82,3.3H74v.63H69.51v3h4.36v.63H69.51v3.2H74v.63H68.82Z"/><path class="cls-1" d="M85.84,3.17a3.91,3.91,0,0,1,3.93,4.18,3.94,3.94,0,1,1-7.86,0A3.9,3.9,0,0,1,85.84,3.17Zm0,.63c-2,0-3.2,1.49-3.2,3.55s1.23,3.56,3.2,3.56A3.25,3.25,0,0,0,89,7.35C89,5.29,87.78,3.8,85.84,3.8Z"/><path class="cls-1" d="M95.66,8.05H93.88v3.34h-.69V3.3h3a2.3,2.3,0,0,1,2.46,2.37A2.23,2.23,0,0,1,96.42,8l2.35,3.39h-.84Zm.49-4.12H93.88V7.41h2.27a1.69,1.69,0,0,0,1.79-1.74A1.69,1.69,0,0,0,96.15,3.93Z"/><path class="cls-1" d="M107.17,9.4h-4.31l-.81,2h-.78l3.31-8.09h.86l3.32,8.09H108Zm-4.09-.63H107L105,4Z"/><path class="cls-1" d="M112.87,3.93h-2.64V3.3h6v.63h-2.64v7.46h-.71Z"/><path class="cls-1" d="M122.63,3.17a3.91,3.91,0,0,1,3.93,4.18,3.94,3.94,0,1,1-7.86,0A3.91,3.91,0,0,1,122.63,3.17Zm0,.63c-2,0-3.2,1.49-3.2,3.55s1.24,3.56,3.2,3.56a3.25,3.25,0,0,0,3.21-3.56A3.23,3.23,0,0,0,122.63,3.8Z"/><path class="cls-1" d="M132.45,8.05h-1.78v3.34H130V3.3h3a2.29,2.29,0,0,1,2.46,2.37A2.23,2.23,0,0,1,133.22,8l2.34,3.39h-.84Zm.49-4.12h-2.27V7.41h2.27a1.69,1.69,0,0,0,1.8-1.74A1.69,1.69,0,0,0,132.94,3.93Z"/><path class="cls-1" d="M141.1,7.94,137.88,3.3h.84l2.73,4,2.73-4H145L141.8,7.94v3.45h-.7Z"/><path class="cls-1" d="M156.38,3.17a3.91,3.91,0,0,1,3.93,4.18,3.94,3.94,0,1,1-7.86,0A3.9,3.9,0,0,1,156.38,3.17Zm0,.63c-2,0-3.2,1.49-3.2,3.55s1.23,3.56,3.2,3.56a3.25,3.25,0,0,0,3.2-3.56C159.58,5.29,158.32,3.8,156.38,3.8Z"/><path class="cls-1" d="M163.73,3.3h5.13v.63h-4.44v3h4.35v.63h-4.35v3.83h-.69Z"/><path class="cls-1" d="M176.85,9.73a3.28,3.28,0,0,0,2.52,1.18c1.66,0,2.14-.92,2.14-1.61,0-1.15-1.08-1.46-2.22-1.76s-2.64-.72-2.64-2.21c0-1.32,1.19-2.16,2.66-2.16a3.46,3.46,0,0,1,2.74,1.14l-.46.51a2.86,2.86,0,0,0-2.31-1c-1.08,0-1.9.62-1.9,1.49s1,1.24,2.11,1.53c1.31.38,2.75.79,2.75,2.43,0,1-.7,2.29-2.88,2.29a3.71,3.71,0,0,1-3-1.29Z"/><path class="cls-1" d="M190.55,9.4h-4.31l-.81,2h-.78L188,3.3h.86l3.31,8.09h-.78Zm-4.09-.63h3.87L188.39,4Z"/><path class="cls-1" d="M195,3.3h.69v8.09H195Z"/><path class="cls-1" d="M200.13,4.41v7h-.69V3.3h.7l5.07,6.89V3.3h.69v8.09h-.67Z"/><path class="cls-1" d="M211.69,3.93H209V3.3h6v.63h-2.65v7.46h-.7Z"/><path class="cls-1" d="M218.14,9.73a3.32,3.32,0,0,0,2.53,1.18c1.66,0,2.13-.92,2.13-1.61,0-1.15-1.08-1.46-2.22-1.76S218,6.82,218,5.33c0-1.32,1.19-2.16,2.66-2.16a3.46,3.46,0,0,1,2.74,1.14l-.46.51a2.88,2.88,0,0,0-2.32-1c-1.08,0-1.89.62-1.89,1.49s1,1.24,2.11,1.53c1.31.38,2.74.79,2.74,2.43,0,1-.69,2.29-2.87,2.29a3.68,3.68,0,0,1-3-1.29Z"/><path class="cls-1" d="M27.07,0c5.49,0,9.83,2.13,11.82,2.74a2.75,2.75,0,0,0,2.26-.42h.29V8.08h-.29C39.5,5.2,34.92,1,27,1,16.4,1,4.77,10.87,4.77,27.64,4.77,43.9,17.29,56,31.56,56c7.75,0,9.36-3.49,9.36-6.19V26.32H27.4a2.52,2.52,0,0,0-2.12,1.51H24.9V25H46.59v.37A3.22,3.22,0,0,0,45,28V50a2.93,2.93,0,0,0,1.61,2.69v.38A18.69,18.69,0,0,0,43,54.43a37.15,37.15,0,0,1-13.13,3C9.21,57.41,0,42.19,0,27.83,0,12.47,11,0,27.07,0Z"/><path class="cls-1" d="M77,54.55v.38h-2.6c-3.73,0-4.87-1.84-5.57-2.78l-7.42-9.79H56.1V52a2.79,2.79,0,0,0,1.55,2.55v.38H50.43v-.38A3,3,0,0,0,52,51.91v-27a3,3,0,0,0-1.56-2.64v-.38H66.35a10.28,10.28,0,0,1,10.3,10.25c0,5.77-4.4,10.16-10.63,10.25,1.32,1.71,5.67,7.23,6.85,8.7C73.81,52.19,75.52,54.55,77,54.55ZM63.66,41.33a9.21,9.21,0,0,0,8.74-9.22c0-5.05-3.12-9.21-9.17-9.21H56.1V41.33Z"/><path class="cls-1" d="M80.29,54.55a2.64,2.64,0,0,0,1.56-2.31V24.55a2.66,2.66,0,0,0-1.56-2.31v-.38h21.12l.85,2.83h-.37a5.59,5.59,0,0,0-3.55-1.79H86V34.43h7.66a2.93,2.93,0,0,0,2.69-1.61h.38V37h-.38a3,3,0,0,0-2.69-1.56H86V53.89h14.27a5.59,5.59,0,0,0,3.55-1.79h.37l-.85,2.83h-23Z"/><path class="cls-1" d="M103.69,38.44c0-9.21,5.76-17,17-17a22,22,0,0,1,9.45,2.37v3.54h-.33a11,11,0,0,0-9.12-4.87c-8.22,0-12.48,7.33-12.48,16s4.26,15.88,12.48,15.88a23.12,23.12,0,0,0,6.24-1V39.91a3,3,0,0,0-1.56-2.65v-.38h7.23v.38A2.88,2.88,0,0,0,131,39.91V51.63a.84.84,0,0,0,.28.61v.28c-1.42,1.14-6.52,2.84-10.63,2.84C109.45,55.36,103.69,47.56,103.69,38.44Z"/><path class="cls-1" d="M169.8,38.44c0,9.12-6,16.92-17,16.92-11.2,0-17-7.8-17-16.92s5.76-17,17-17S169.8,29.23,169.8,38.44Zm-4.49,0c0-8.64-4.26-16-12.48-16s-12.47,7.33-12.47,16,4.25,15.88,12.47,15.88S165.31,47,165.31,38.44Z"/><path class="cls-1" d="M199.67,54.55v.38h-2.6c-3.74,0-4.87-1.84-5.58-2.78l-7.42-9.79h-5.29V52a2.8,2.8,0,0,0,1.56,2.55v.38h-7.23v-.38a3,3,0,0,0,1.56-2.64v-27a3,3,0,0,0-1.56-2.64v-.38H189a10.28,10.28,0,0,1,10.3,10.25c0,5.77-4.39,10.16-10.63,10.25,1.33,1.71,5.67,7.23,6.85,8.7C196.5,52.19,198.2,54.55,199.67,54.55ZM186.34,41.33a9.2,9.2,0,0,0,8.74-9.22c0-5.05-3.12-9.21-9.16-9.21h-7.14V41.33Z"/><path class="cls-1" d="M218.9,21.86h4.63v.38a6.7,6.7,0,0,0-3,2.64l-6.48,10.35V51.91a2.86,2.86,0,0,0,1.56,2.64v.38h-7.23v-.38A3,3,0,0,0,210,51.91V36.22L202.7,24.88a6.59,6.59,0,0,0-3-2.64v-.38H207v.38c-.42.37-.47,1.27.38,2.64l6,9.5,6-9.54c1-1.66,0-2.32-.43-2.6Z"/><path class="cls-1" d="M76.94,63.66a3.25,3.25,0,0,0-1.56,2.7V85.73c0,5.53-2.6,11.06-11.29,11-7.46,0-11.24-4.77-11.24-9.69V66.36a3,3,0,0,0-1.61-2.7v-.38h7.28v.38A3,3,0,0,0,57,66.21V86c0,4.3,1.52,9.4,7.56,9.4s9.55-3.83,9.55-9v-20a3.12,3.12,0,0,0-1.56-2.65v-.38h4.39Z"/><path class="cls-1" d="M80.26,79.87c0-9.21,5.76-17,17-17a22.22,22.22,0,0,1,9.45,2.36v3.55h-.33a11,11,0,0,0-9.12-4.87c-8.22,0-12.48,7.32-12.48,16S89,95.74,97.22,95.74a23.11,23.11,0,0,0,6.24-.94V81.33a3,3,0,0,0-1.56-2.64v-.38h7.23v.38a2.87,2.87,0,0,0-1.56,2.64V93.05a.86.86,0,0,0,.28.62V94c-1.42,1.13-6.52,2.84-10.63,2.84C86,96.79,80.26,89,80.26,79.87Z"/><path class="cls-1" d="M138.62,63.66a3.25,3.25,0,0,0-1.56,2.7V85.73c0,5.53-2.6,11.06-11.3,11-7.46,0-11.24-4.77-11.24-9.69V66.36a3,3,0,0,0-1.61-2.7v-.38h7.28v.38a3,3,0,0,0-1.51,2.55V86c0,4.3,1.51,9.4,7.56,9.4s9.54-3.83,9.54-9v-20a3.12,3.12,0,0,0-1.56-2.65v-.38h4.4Z"/><path class="cls-1" d="M162.11,87.38a9.53,9.53,0,0,1-9.93,9.41c-5.57,0-8.08-2.13-9.78-3.64V89.32h.33c.81,1.42,3.12,6.42,9.45,6.42,4.26,0,7-2.4,7-6.7,0-7.75-16.49-6.67-16.49-17.63,0-5,3.59-8.55,9-8.55a16.52,16.52,0,0,1,7.65,2.27v3.78H159c-1.13-2.22-3.78-5.06-7.51-5.06s-6,2.69-6,6.38C145.52,77.55,162.11,76.28,162.11,87.38Z"/><path class="cls-1" d="M187,66.12h-.37a5.6,5.6,0,0,0-3.55-1.8h-6.19v29A2.87,2.87,0,0,0,178.41,96v.38h-7.23V96a3,3,0,0,0,1.56-2.64v-29H166.5a5.68,5.68,0,0,0-3.54,1.8h-.38l.85-2.84h22.68Z"/><path class="cls-1" d="M190.75,96a3,3,0,0,0,1.56-2.64v-27a3,3,0,0,0-1.56-2.65v-.38h7.13v.38a2.9,2.9,0,0,0-1.56,2.65v27A2.89,2.89,0,0,0,197.88,96v.38h-7.13Z"/><path class="cls-1" d="M226.57,66.31v27A2.87,2.87,0,0,0,228.13,96v.38h-4.4V96a3,3,0,0,0,1.56-2.64V85.11L205,67.82V93.34A2.84,2.84,0,0,0,206.53,96v.38h-4.39V96a3,3,0,0,0,1.56-2.64v-27a3,3,0,0,0-1.56-2.65v-.38h4.35l18.8,15.93V66.31a2.92,2.92,0,0,0-1.56-2.65v-.38h4.4v.38A2.88,2.88,0,0,0,226.57,66.31Z"/><path class="cls-1" d="M231.91,96a2.66,2.66,0,0,0,1.56-2.31V66a2.66,2.66,0,0,0-1.56-2.32v-.38H253l.85,2.84h-.38a5.54,5.54,0,0,0-3.54-1.8H237.58V75.85h7.66a2.92,2.92,0,0,0,2.69-1.6h.38v4.2h-.38a3,3,0,0,0-2.69-1.56h-7.66V95.32h14.27a5.55,5.55,0,0,0,3.55-1.8h.37l-.85,2.84h-23Z"/><path class="cls-1" d="M244.51,43.52c1.17,1.38,1.68,2.24,2.61,3.17a8.13,8.13,0,0,0,1.07-4.17c0-1.75-.62-4.33-2.07-4.71v-.24h3.13v.24c-1.1.73-.48,2.38-.48,4.71a8.85,8.85,0,0,1-1.2,4.61,26.79,26.79,0,0,0,4.5,4.27v.27c-2.23,0-4.06-1.24-6-2.75a9.44,9.44,0,0,1-7,2.92A6.52,6.52,0,0,1,232.3,45c0-3.26,1.82-5.57,5.19-7-1-1.82-2-3.33-2-5.5,0-3.61,2-5.33,5.09-5.33s5.09,1.69,5.09,4.2c0,2.78-2,5.12-5.6,6.12A56.51,56.51,0,0,0,244.51,43.52Zm-1.93,1.62a50.87,50.87,0,0,1-4.85-6.64c-2,1.14-2.92,2.79-2.92,5.54,0,3.54,2.1,6.6,5.74,6.6a7.42,7.42,0,0,0,5.06-2.13C244.51,47.34,243.85,46.65,242.58,45.14Zm1-13.58c0-2.27-1.27-3.78-3.2-3.78-1.72,0-2.85,1.47-2.85,3.57,0,1.34,1.1,3.82,2.27,5.74A5.54,5.54,0,0,0,243.58,31.56Z"/><path class="cls-1" d="M47.15,91.44v-.37a2.93,2.93,0,0,1-1.61-2.7V66.31A3.14,3.14,0,0,1,46.74,64,1.24,1.24,0,0,0,47,63.8l.13-.09v-.38H25.41v2.84h.38a2.52,2.52,0,0,1,2.13-1.52H36a1.84,1.84,0,0,1,.76,1.4c0,1.07-1.69,2.73-2.25,3.52-2,2.75-4,5.48-5.91,8.27a143.15,143.15,0,0,0-12.45,21c-3.52,7.59-6.57,16.58-4.48,25,1.38,5.58,5.61,10.93,11.81,10.93a7.27,7.27,0,0,0,7.67-8.67l-.22.12a6.59,6.59,0,0,1-6.67,6.83c-5.27,0-8.94-6.5-8.94-15.11,0-.61,0-1.28.05-1.89l.17-1.72c.62-6.29,2.81-13.19,5.67-19.76a35.28,35.28,0,0,0,9.17,1.16A33.32,33.32,0,0,0,40.3,94v1.69s0,.06,0,.09v8.81s0,.06,0,.09v12.2A3.41,3.41,0,0,1,38.47,120v.45H47V120a3.5,3.5,0,0,1-1.83-3.17V92.09A7.6,7.6,0,0,1,47.15,91.44ZM32.08,94.33a25.36,25.36,0,0,1-9.82-2c1.22-2.63,2.53-5.18,3.88-7.6l0,0a4.2,4.2,0,0,1,.59-.95,2,2,0,0,1,.12-.19h0l-.07,0c5.28-9.23,10.89-16.17,13.5-17.12V91.55C39.08,93.11,36.65,94.33,32.08,94.33Z"/></g></g></svg>