<svg xmlns="http://www.w3.org/2000/svg" viewBox="0 0 345.26 110.65"><defs><style>.cls-1{fill:#231f20;}</style></defs><title>Mark+Text_Logo_Black</title><g id="Layer_2" data-name="Layer 2"><g id="Layer_1-2" data-name="Layer 1"><line class="cls-1" x1="83.74" y1="13.76" x2="83.74" y2="88.39"/><rect class="cls-1" x="83.24" y="13.76" width="1" height="74.63"/><path class="cls-1" d="M116.37,35.26h-2.45v-.59h5.56v.59H117v6.92h-.66Z"/><path class="cls-1" d="M127.79,38.61H123v3.57h-.64V34.67H123V38h4.76V34.67h.66v7.51h-.66Z"/><path class="cls-1" d="M131.89,34.67h4.76v.59h-4.12V38h4v.58h-4v3h4.12v.59h-4.76Z"/><path class="cls-1" d="M147.68,34.55a3.63,3.63,0,0,1,3.64,3.88,3.65,3.65,0,1,1-7.29,0A3.62,3.62,0,0,1,147.68,34.55Zm0,.58a3,3,0,0,0-3,3.3,3,3,0,1,0,6,0A3,3,0,0,0,147.68,35.13Z"/><path class="cls-1" d="M156.79,39.07h-1.65v3.11h-.65V34.67h2.81a2.13,2.13,0,0,1,2.28,2.2A2.07,2.07,0,0,1,157.5,39l2.17,3.15h-.77Zm.45-3.81h-2.1v3.23h2.1a1.62,1.62,0,1,0,0-3.23Z"/><path class="cls-1" d="M167.47,40.33h-4l-.75,1.85H162l3.07-7.51h.8l3.07,7.51h-.72Zm-3.8-.58h3.6l-1.81-4.45Z"/><path class="cls-1" d="M172.76,35.26h-2.45v-.59h5.56v.59h-2.45v6.92h-.66Z"/><path class="cls-1" d="M181.82,34.55a3.63,3.63,0,0,1,3.65,3.88,3.66,3.66,0,1,1-7.3,0A3.62,3.62,0,0,1,181.82,34.55Zm0,.58a3,3,0,0,0-3,3.3,3,3,0,1,0,5.94,0A3,3,0,0,0,181.82,35.13Z"/><path class="cls-1" d="M190.93,39.07h-1.65v3.11h-.64V34.67h2.8a2.13,2.13,0,0,1,2.29,2.2A2.07,2.07,0,0,1,191.64,39l2.18,3.15H193Zm.45-3.81h-2.1v3.23h2.1a1.62,1.62,0,1,0,0-3.23Z"/><path class="cls-1" d="M199,39l-3-4.3h.78l2.53,3.69,2.53-3.69h.78l-3,4.3v3.21H199Z"/><path class="cls-1" d="M213.14,34.55a3.63,3.63,0,0,1,3.64,3.88,3.65,3.65,0,1,1-7.29,0A3.62,3.62,0,0,1,213.14,34.55Zm0,.58a3,3,0,0,0-3,3.3,3,3,0,1,0,6,0A3,3,0,0,0,213.14,35.13Z"/><path class="cls-1" d="M220,34.67h4.77v.59h-4.13V38h4v.58h-4v3.56H220Z"/><path class="cls-1" d="M232.13,40.64a3.06,3.06,0,0,0,2.34,1.09c1.54,0,2-.86,2-1.5,0-1.06-1-1.35-2.06-1.63S232,37.94,232,36.55c0-1.23,1.1-2,2.47-2A3.24,3.24,0,0,1,237,35.6l-.43.48a2.69,2.69,0,0,0-2.15-.95c-1,0-1.75.58-1.75,1.39s.93,1.15,2,1.42c1.21.34,2.54.73,2.54,2.25,0,1-.64,2.13-2.67,2.13a3.46,3.46,0,0,1-2.75-1.2Z"/><path class="cls-1" d="M244.85,40.33h-4l-.76,1.85h-.72l3.08-7.51h.8l3.07,7.51h-.72Zm-3.8-.58h3.59l-1.8-4.45Z"/><path class="cls-1" d="M249,34.67h.65v7.51H249Z"/><path class="cls-1" d="M253.73,35.7v6.48h-.64V34.67h.66l4.7,6.4v-6.4h.64v7.51h-.63Z"/><path class="cls-1" d="M264.46,35.26H262v-.59h5.57v.59h-2.46v6.92h-.65Z"/><path class="cls-1" d="M270.45,40.64a3.09,3.09,0,0,0,2.34,1.09c1.55,0,2-.86,2-1.5,0-1.06-1-1.35-2.06-1.63s-2.45-.66-2.45-2.05c0-1.23,1.11-2,2.47-2a3.23,3.23,0,0,1,2.54,1.05l-.43.48a2.69,2.69,0,0,0-2.14-.95c-1,0-1.76.58-1.76,1.39s.93,1.15,2,1.42c1.21.34,2.54.73,2.54,2.25,0,1-.64,2.13-2.67,2.13a3.44,3.44,0,0,1-2.74-1.2Z"/><path class="cls-1" d="M111.65,59.59c0-4.36,2.73-8.05,8-8.05a10.39,10.39,0,0,1,4.47,1.12v1.67H124a5.25,5.25,0,0,0-4.32-2.3c-3.9,0-5.91,3.47-5.91,7.56s2,7.52,5.91,7.52a10.93,10.93,0,0,0,3-.45V60.29A1.4,1.4,0,0,0,121.9,59v-.17h3.43V59a1.36,1.36,0,0,0-.74,1.26v5.55a.4.4,0,0,0,.13.29v.13a10.55,10.55,0,0,1-5,1.34C114.38,67.6,111.65,63.91,111.65,59.59Z"/><path class="cls-1" d="M139.7,67.22v.18h-1.23a2.8,2.8,0,0,1-2.64-1.32l-3.51-4.63h-2.51V66a1.3,1.3,0,0,0,.74,1.2v.18h-3.43v-.18a1.39,1.39,0,0,0,.74-1.25V53.17a1.39,1.39,0,0,0-.74-1.25v-.18h7.55a4.86,4.86,0,1,1-.16,9.71c.63.81,2.68,3.42,3.24,4.12C138.2,66.1,139,67.22,139.7,67.22ZM133.39,61a4.36,4.36,0,0,0,4.14-4.37,4.09,4.09,0,0,0-4.34-4.36h-3.38V61Z"/><path class="cls-1" d="M141.27,67.22a1.25,1.25,0,0,0,.74-1.09V53a1.27,1.27,0,0,0-.74-1.09v-.18h10l.41,1.34h-.18a2.63,2.63,0,0,0-1.68-.85H144v5.46h3.62a1.38,1.38,0,0,0,1.28-.76H149v2h-.18a1.42,1.42,0,0,0-1.28-.74H144v8.73h6.76a2.63,2.63,0,0,0,1.67-.85h.18l-.4,1.34h-10.9Z"/><path class="cls-1" d="M152.36,59.59c0-4.36,2.73-8.05,8-8.05a10.39,10.39,0,0,1,4.47,1.12v1.67h-.15a5.23,5.23,0,0,0-4.32-2.3c-3.9,0-5.91,3.47-5.91,7.56s2,7.52,5.91,7.52a10.93,10.93,0,0,0,3-.45V60.29A1.4,1.4,0,0,0,162.6,59v-.17H166V59a1.36,1.36,0,0,0-.74,1.26v5.55a.44.44,0,0,0,.13.29v.13a10.51,10.51,0,0,1-5,1.34C155.09,67.6,152.36,63.91,152.36,59.59Z"/><path class="cls-1" d="M183.67,59.59a7.63,7.63,0,0,1-8,8c-5.3,0-8-3.69-8-8s2.73-8.05,8-8.05S183.67,55.23,183.67,59.59Zm-2.13,0c0-4.09-2-7.56-5.91-7.56s-5.9,3.47-5.9,7.56,2,7.52,5.9,7.52S181.54,63.64,181.54,59.59Z"/><path class="cls-1" d="M197.82,67.22v.18h-1.23A2.79,2.79,0,0,1,194,66.08l-3.52-4.63h-2.5V66a1.3,1.3,0,0,0,.74,1.2v.18h-3.43v-.18A1.39,1.39,0,0,0,186,66V53.17a1.39,1.39,0,0,0-.74-1.25v-.18h7.54a4.86,4.86,0,1,1-.15,9.71c.62.81,2.68,3.42,3.24,4.12C196.32,66.1,197.13,67.22,197.82,67.22ZM191.51,61a4.36,4.36,0,0,0,4.14-4.37,4.09,4.09,0,0,0-4.34-4.36h-3.38V61Z"/><path class="cls-1" d="M206.93,51.74h2.2v.18a3.17,3.17,0,0,0-1.41,1.25l-3.07,4.9V66a1.36,1.36,0,0,0,.74,1.25v.18H202v-.18a1.41,1.41,0,0,0,.74-1.25V58.54l-3.45-5.37a3.23,3.23,0,0,0-1.43-1.25v-.18h3.47v.18c-.21.18-.23.6.17,1.25l2.82,4.5,2.84-4.52c.5-.78,0-1.1-.2-1.23Z"/><path class="cls-1" d="M223,62.19c.76.89,1.1,1.45,1.7,2.06a5.28,5.28,0,0,0,.7-2.71c0-1.14-.41-2.82-1.35-3.06v-.16h2v.16c-.72.46-.31,1.54-.31,3.06a5.71,5.71,0,0,1-.79,3,17.84,17.84,0,0,0,2.93,2.77v.18A6.39,6.39,0,0,1,224,65.7a6.12,6.12,0,0,1-4.56,1.9A4.24,4.24,0,0,1,215,63.17c0-2.12,1.18-3.62,3.38-4.56A6.93,6.93,0,0,1,217.09,55c0-2.35,1.32-3.47,3.31-3.47s3.31,1.1,3.31,2.73c0,1.81-1.3,3.33-3.65,4A38.07,38.07,0,0,0,223,62.19Zm-1.25,1.05a34.36,34.36,0,0,1-3.16-4.32,3.67,3.67,0,0,0-1.9,3.6c0,2.31,1.37,4.3,3.74,4.3a4.85,4.85,0,0,0,3.29-1.39C223,64.67,222.55,64.23,221.72,63.24Zm.65-8.84c0-1.47-.83-2.46-2.08-2.46s-1.86,1-1.86,2.33A9.39,9.39,0,0,0,219.91,58,3.63,3.63,0,0,0,222.37,54.4Z"/><path class="cls-1" d="M233.35,67.22A2.49,2.49,0,0,0,234.44,66l6.34-14.54H241L247,66a2.5,2.5,0,0,0,1.16,1.25v.18h-3.72v-.18a1.1,1.1,0,0,0,.52-1.25l-1.23-3h-7.39L235,66a.88.88,0,0,0,.33,1.25v.18h-2Zm10.16-4.74-3.38-8.23-3.58,8.23Z"/><path class="cls-1" d="M260.54,51.92a1.54,1.54,0,0,0-.73,1.27v9.18c0,2.62-1.23,5.23-5.35,5.21-3.54,0-5.33-2.26-5.33-4.59v-9.8a1.42,1.42,0,0,0-.76-1.27v-.18h3.45v.18a1.41,1.41,0,0,0-.72,1.21v9.35c0,2,.72,4.45,3.58,4.45a4.15,4.15,0,0,0,4.52-4.27V53.17a1.47,1.47,0,0,0-.74-1.25v-.18h2.08Z"/><path class="cls-1" d="M262.12,59.59c0-4.36,2.73-8.05,8-8.05a10.49,10.49,0,0,1,4.48,1.12v1.67h-.16a5.23,5.23,0,0,0-4.32-2.3c-3.89,0-5.91,3.47-5.91,7.56s2,7.52,5.91,7.52a10.93,10.93,0,0,0,3-.45V60.29a1.4,1.4,0,0,0-.74-1.26v-.17h3.43V59a1.36,1.36,0,0,0-.74,1.26v5.55a.4.4,0,0,0,.14.29v.13a10.59,10.59,0,0,1-5,1.34C264.85,67.6,262.12,63.91,262.12,59.59Z"/><path class="cls-1" d="M289.76,51.92a1.55,1.55,0,0,0-.74,1.27v9.18c0,2.62-1.23,5.23-5.35,5.21-3.53,0-5.32-2.26-5.32-4.59v-9.8a1.42,1.42,0,0,0-.76-1.27v-.18H281v.18a1.43,1.43,0,0,0-.71,1.21v9.35c0,2,.71,4.45,3.58,4.45a4.15,4.15,0,0,0,4.52-4.27V53.17a1.49,1.49,0,0,0-.74-1.25v-.18h2.08Z"/><path class="cls-1" d="M300.89,63.15a4.51,4.51,0,0,1-4.7,4.45,6.14,6.14,0,0,1-4.63-1.72V64.07h.15a5,5,0,0,0,4.48,3,3,3,0,0,0,3.33-3.18c0-3.66-7.81-3.15-7.81-8.34A4,4,0,0,1,296,51.54a7.83,7.83,0,0,1,3.62,1.07V54.4h-.16A4.19,4.19,0,0,0,295.88,52,2.81,2.81,0,0,0,293,55C293,58.5,300.89,57.89,300.89,63.15Z"/><path class="cls-1" d="M312.66,53.08h-.18a2.63,2.63,0,0,0-1.67-.85h-2.94V66a1.37,1.37,0,0,0,.74,1.25v.18h-3.42v-.18a1.41,1.41,0,0,0,.74-1.25V52.23H303a2.68,2.68,0,0,0-1.68.85h-.18l.4-1.34h10.74Z"/><path class="cls-1" d="M314.46,67.22A1.41,1.41,0,0,0,315.2,66V53.17a1.41,1.41,0,0,0-.74-1.25v-.18h3.38v.18a1.36,1.36,0,0,0-.74,1.25V66a1.36,1.36,0,0,0,.74,1.25v.18h-3.38Z"/><path class="cls-1" d="M331.43,53.17V66a1.37,1.37,0,0,0,.73,1.25v.18h-2.08v-.18a1.39,1.39,0,0,0,.74-1.25V62.08l-9.62-8.19V66a1.33,1.33,0,0,0,.74,1.25v.18h-2.08v-.18A1.41,1.41,0,0,0,320.6,66V53.17a1.41,1.41,0,0,0-.74-1.25v-.18h2.05l8.91,7.54V53.17a1.37,1.37,0,0,0-.74-1.25v-.18h2.08v.18A1.37,1.37,0,0,0,331.43,53.17Z"/><path class="cls-1" d="M334,67.22a1.25,1.25,0,0,0,.74-1.09V53a1.27,1.27,0,0,0-.74-1.09v-.18h10l.41,1.34h-.18a2.68,2.68,0,0,0-1.68-.85h-5.86v5.46h3.62a1.38,1.38,0,0,0,1.28-.76h.18v2h-.18a1.42,1.42,0,0,0-1.28-.74h-3.62v8.73h6.75a2.63,2.63,0,0,0,1.68-.85h.18l-.4,1.34H334Z"/><path class="cls-1" d="M53.5,60.93V60.5a3.38,3.38,0,0,1-1.84-3.09V32.09A3.63,3.63,0,0,1,53,29.4l.27-.15v0l.15-.1v-.43H28.57v3.25H29a2.88,2.88,0,0,1,2.44-1.74h9.32a2.13,2.13,0,0,1,.87,1.61c0,1-6.44,8.8-13.26,19.32l-.06,0a4.69,4.69,0,0,1-.89,1.4l.06,0c-1.69,2.62-3.38,5.39-5,8.25a32.48,32.48,0,0,1-17-29.06C5.47,12.47,18.81,1.19,31,1.19c9.11,0,14.37,4.77,16.26,8.08h.33V2.66h-.33a3.16,3.16,0,0,1-2.6.48C42.33,2.44,37.35,0,31.06,0,12.58,0,0,14.31,0,31.93c0,13,6.55,26.53,20.9,31.72-4,7.45-7.26,15.31-8.4,22.52l-.07,0c0,.12-.06.24-.09.36a5.68,5.68,0,0,1-.22,1.75l.06,0c-.06,1-.12,2-.12,3,0,12.81,7.2,19.38,14.34,19.38,8.79,0,9.3-8,8.79-10l-.25.13a7.56,7.56,0,0,1-7.65,7.84c-6.05,0-10.26-7.45-10.26-17.34,0-.7,0-1.46.06-2.16l.19-2C18,80,20.5,72.08,23.77,64.55a41.09,41.09,0,0,0,10.54,1.31,38.47,38.47,0,0,0,11.34-2v1.94s0,.06,0,.1V76s0,.07,0,.11v14a3.92,3.92,0,0,1-2.1,3.63v.51H53.3v-.51a4,4,0,0,1-2.11-3.63V61.67A8.64,8.64,0,0,1,53.5,60.93ZM36.21,64.24a29.11,29.11,0,0,1-11.27-2.3c1.4-3,2.91-5.95,4.45-8.72h0a4.81,4.81,0,0,1,.68-1.08c0-.07.08-.15.13-.22h0l-.08,0C36.21,41.3,42.65,33.33,45.65,32.25v28.8C44.24,62.83,41.46,64.24,36.21,64.24Z"/></g></g></svg>